<svg xmlns="http://www.w3.org/2000/svg" fill='gray' height="48" viewBox="0 -960 960 960" width="48"><path d="M480.118-261Q553-261 602.5-310.618q49.5-49.617 49.5-122.5Q652-507 602.382-556q-49.617-49-122.5-49Q406-605 357-555.882q-49 49.117-49 123Q308-360 357.118-310.5q49.117 49.5 123 49.5ZM137-104q-28.725 0-50.862-21.819Q64-147.637 64-177v-514q0-27.725 22.138-50.362Q108.275-764 137-764h145l77-92h243l77 92h144q28.362 0 50.681 22.638Q896-718.725 896-691v514q0 29.363-22.319 51.181Q851.362-104 823-104H137Z"/></svg>